<?xml version="1.0" standalone="no"?>
<!DOCTYPE svg PUBLIC "-//W3C//DTD SVG 20010904//EN"
 "http://www.w3.org/TR/2001/REC-SVG-20010904/DTD/svg10.dtd">
<svg version="1.0" xmlns="http://www.w3.org/2000/svg"
 width="500.000000pt" height="281.000000pt" viewBox="0 0 500.000000 281.000000"
 preserveAspectRatio="xMidYMid meet">

<g transform="translate(0.000000,281.000000) scale(0.100000,-0.100000)"
fill="#000000" stroke="none">
<path d="M2452 2258 c-7 -7 -12 -16 -12 -22 0 -6 5 -5 12 2 13 13 54 16 61 5
3 -5 2 -23 0 -41 -6 -35 -53 -74 -107 -88 -14 -3 -25 -9 -24 -13 2 -20 -6 -34
-48 -76 -25 -26 -43 -50 -40 -53 3 -3 17 7 30 21 14 16 36 27 50 27 14 0 37
11 52 25 21 19 38 25 75 25 26 0 51 -4 54 -10 3 -5 -2 -10 -11 -10 -14 0 -15
-3 -6 -12 18 -18 56 20 40 39 -18 23 -20 103 -3 103 25 0 17 18 -22 55 -39 36
-79 45 -101 23z"/>
<path d="M2415 1970 c-32 -12 -48 -37 -42 -66 3 -16 0 -27 -9 -31 -19 -7 -18
-23 1 -23 13 0 15 -21 15 -129 0 -114 2 -129 18 -133 39 -10 42 -1 42 132 l0
128 26 5 c62 11 64 7 64 -133 0 -123 1 -128 22 -133 12 -3 25 -4 30 -1 4 3 8
63 8 135 0 122 1 129 20 129 11 0 20 5 20 10 0 6 -9 10 -20 10 -21 0 -55 53
-45 70 8 13 42 13 50 0 10 -17 25 -11 25 9 0 38 -72 38 -106 0 -11 -13 -15
-28 -11 -49 6 -30 6 -30 -38 -30 -39 0 -46 3 -60 30 -9 17 -13 35 -10 40 8 13
42 13 50 0 10 -17 25 -11 25 9 0 28 -34 38 -75 21z"/>
<path d="M1920 1867 c-87 -44 -95 -202 -14 -266 23 -18 38 -22 67 -18 41 6 77
31 77 54 0 19 -10 16 -36 -13 -31 -32 -73 -30 -91 6 -18 36 -17 164 2 200 12
23 22 30 46 30 24 0 33 -6 43 -30 13 -31 26 -30 26 1 0 20 -47 49 -77 49 -10
0 -29 -6 -43 -13z"/>
<path d="M2165 1873 c-72 -18 -106 -129 -69 -223 19 -47 55 -70 110 -70 28 0
44 8 70 34 32 32 34 38 34 105 0 87 -18 127 -65 147 -35 14 -45 15 -80 7z m71
-38 c26 -39 30 -152 7 -195 -25 -49 -65 -54 -88 -9 -24 45 -18 178 9 208 26
28 52 27 72 -4z"/>
<path d="M2725 1866 c-52 -23 -69 -51 -73 -120 -5 -74 13 -117 61 -147 59 -37
167 -7 167 46 0 32 -14 32 -28 0 -14 -31 -52 -50 -84 -42 -19 5 -58 52 -58 70
0 2 18 7 41 11 58 9 96 31 114 66 29 56 15 101 -36 119 -41 14 -67 13 -104 -3z
m95 -25 c32 -61 -18 -145 -82 -139 -30 3 -33 6 -31 36 2 51 12 81 33 102 26
26 66 26 80 1z"/>
<path d="M2977 1864 c-70 -30 -98 -133 -57 -213 29 -58 101 -85 163 -62 36 14
56 38 50 61 -5 20 -8 19 -35 -14 -37 -45 -77 -49 -107 -10 -30 38 -26 51 17
58 48 7 103 43 120 78 37 78 -58 142 -151 102z m101 -37 c27 -55 -16 -121 -84
-129 -27 -3 -29 0 -32 31 -5 45 3 72 29 105 28 36 68 32 87 -7z"/>
<path d="M623 1550 c-98 -21 -195 -97 -240 -189 -26 -52 -28 -65 -28 -176 0
-111 2 -124 28 -176 32 -67 109 -142 175 -172 38 -17 66 -22 142 -22 82 0 103
4 150 26 30 14 66 35 80 47 l25 21 -39 39 -38 40 -45 -29 c-127 -80 -293 -27
-353 113 -19 43 -22 65 -18 128 10 157 95 240 245 240 56 0 77 -5 122 -30 l54
-30 33 36 c19 19 34 38 34 42 -1 11 -71 58 -112 75 -47 20 -160 29 -215 17z"/>
<path d="M1290 1541 c0 -6 -31 -90 -69 -188 -172 -439 -201 -515 -201 -524 0
-5 25 -9 55 -9 l54 0 20 45 20 45 130 0 129 0 18 -45 17 -45 59 0 c44 0 59 3
55 13 -2 6 -64 164 -136 349 -72 185 -131 341 -131 347 0 5 -4 13 -10 16 -5 3
-10 2 -10 -4z m59 -410 c22 -63 38 -118 35 -123 -6 -9 -167 -11 -176 -3 -3 3
13 56 34 118 22 61 41 118 44 126 8 25 21 0 63 -118z"/>
<path d="M1688 1544 c-5 -4 -8 -169 -8 -366 l0 -358 129 0 c152 0 222 12 273
45 108 72 105 245 -6 299 l-38 19 39 21 c91 51 100 200 17 278 -50 47 -105 61
-259 65 -77 3 -143 2 -147 -3z m320 -139 c35 -30 44 -62 26 -105 -18 -43 -65
-60 -164 -60 l-80 0 0 95 0 95 94 0 c86 0 97 -2 124 -25z m-18 -291 c46 -18
60 -38 60 -84 0 -77 -45 -98 -202 -92 l-58 2 0 95 0 95 80 0 c50 0 95 -6 120
-16z"/>
<path d="M2317 1543 c-4 -3 -7 -30 -7 -58 0 -45 7 -63 51 -136 71 -116 70
-109 5 -109 l-56 0 0 -210 0 -210 55 0 54 0 3 153 3 152 36 3 36 3 86 -138
c118 -190 102 -175 174 -171 l62 3 -95 150 c-51 83 -94 153 -94 156 0 3 18 14
39 24 78 35 111 89 111 183 0 102 -55 168 -165 197 -60 15 -285 22 -298 8z
m313 -135 c42 -29 56 -67 38 -105 -14 -30 -80 -68 -102 -60 -12 5 -116 166
-116 181 0 3 33 6 74 6 59 0 79 -4 106 -22z"/>
<path d="M2950 1185 l0 -365 240 0 241 0 -3 58 -3 57 -115 0 c-63 1 -145 2
-182 3 l-68 2 0 95 0 95 150 0 150 0 0 55 0 55 -150 0 -150 0 0 95 0 95 185 0
186 0 -3 58 -3 57 -237 3 -238 2 0 -365z"/>
<path d="M3570 1485 c0 -62 3 -70 55 -153 l56 -87 -55 -3 -54 -3 -4 -197 c-2
-108 -2 -203 0 -209 3 -8 23 -13 56 -13 l51 0 -3 110 c-3 61 -1 131 3 156 6
45 7 45 43 42 36 -3 40 -7 132 -155 l95 -153 63 0 c34 0 62 2 62 5 0 3 -40 69
-90 148 -49 78 -90 148 -90 155 0 6 15 18 33 26 104 44 147 168 96 274 -42 86
-140 122 -331 122 l-118 0 0 -65z m294 -65 c65 -24 87 -94 45 -139 -21 -22
-59 -41 -83 -41 -10 0 -108 143 -124 182 -5 11 132 10 162 -2z"/>
<path d="M4342 1388 c-33 -90 -95 -250 -136 -357 -42 -106 -76 -197 -76 -202
0 -5 25 -9 55 -9 l54 0 20 45 20 45 130 0 129 0 18 -45 17 -45 59 0 c44 0 59
3 55 13 -23 58 -238 613 -252 652 -10 28 -21 54 -25 58 -4 4 -34 -66 -68 -155z
m117 -256 c23 -63 39 -118 35 -123 -6 -10 -167 -13 -176 -3 -5 5 13 63 68 212
9 24 20 40 25 35 4 -4 26 -59 48 -121z"/>
<path d="M2341 674 c-11 -8 -21 -19 -21 -25 0 -5 9 0 21 12 18 18 23 19 42 6
31 -21 35 -96 6 -122 -16 -16 -24 -17 -39 -7 -28 17 -39 14 -16 -3 27 -20 42
-19 66 5 14 14 20 33 20 63 0 66 -38 100 -79 71z"/>
<path d="M2140 669 c-12 -8 -11 -9 5 -7 18 3 20 -3 23 -64 3 -62 1 -67 -20
-71 -13 -2 0 -4 27 -4 28 0 40 2 28 4 -21 4 -23 10 -23 79 0 76 -7 86 -40 63z"/>
<path d="M2583 668 c-23 -30 -26 -42 -5 -24 l22 19 0 -46 c0 -46 -1 -47 -30
-47 -33 0 -35 2 -19 33 10 21 10 21 -5 3 -26 -32 -20 -46 18 -46 28 0 35 -4
39 -22 4 -23 4 -23 6 -1 0 12 9 24 19 26 16 4 16 5 0 6 -15 1 -18 11 -18 56 0
54 -8 67 -27 43z"/>
<path d="M2756 664 c-10 -10 -15 -31 -14 -57 l1 -42 4 42 c3 30 11 47 26 58
12 8 16 15 10 15 -6 0 -19 -7 -27 -16z"/>
<path d="M2810 676 c0 -2 7 -7 16 -10 8 -3 12 -2 9 4 -6 10 -25 14 -25 6z"/>
<path d="M2841 605 c-1 -28 -7 -57 -13 -65 -11 -12 -10 -12 3 -2 21 16 31 65
19 94 -7 19 -9 13 -9 -27z"/>
<path d="M2320 612 c0 -12 19 -26 26 -19 2 2 -2 10 -11 17 -9 8 -15 8 -15 2z"/>
<path d="M1983 603 c9 -2 23 -2 30 0 6 3 -1 5 -18 5 -16 0 -22 -2 -12 -5z"/>
<path d="M2973 603 c9 -2 23 -2 30 0 6 3 -1 5 -18 5 -16 0 -22 -2 -12 -5z"/>
<path d="M2750 552 c0 -15 38 -35 53 -28 8 3 7 5 -2 5 -8 1 -23 8 -33 18 -10
9 -18 11 -18 5z"/>
</g>
</svg>
